STARTFONT 2.1
COMMENT "License:"
COMMENT "The Dina font is free. You are welcome to use, distribute and modify it however you want, just don't use it for anything illegal or claim that you made it."
COMMENT "The Dina font is provided 'as-is', without any express or implied warranty. In no event will the authors be held liable for any damages arising from the use of this font."
COMMENT "Copyright © 2005 by Jørgen Ibsen, All Rights Reserved."
FONT -windows-DinaPowerline-bold-i-normal--13-80-96-96-c-70-ISO10646-1
SIZE 13 96 96
FONTBOUNDINGBOX 8 13 0 -3
COMMENT "Generated by fontforge, http://fontforge.sourceforge.net"
STARTPROPERTIES 17
FACE_NAME "Dina"
FAMILY_NAME "Dina"
WEIGHT_NAME "Bold"
SLANT "I"
PIXEL_SIZE 13
POINT_SIZE 80
RESOLUTION_X 96
RESOLUTION_Y 96
CHARSET_REGISTRY "ISO10646"
CHARSET_ENCODING "1"
CAP_HEIGHT 7
WEIGHT 10
X_HEIGHT 0
QUAD_WIDTH 7
DEFAULT_CHAR 8223
FONT_DESCENT 3
FONT_ASCENT 10
ENDPROPERTIES
CHARS 265
STARTCHAR uni0000
ENCODING 0
SWIDTH 7000 0
DWIDTH 7 0
BBX 7 13 0 -3
BITMAP
AA
00
82
00
82
00
82
00
82
00
82
00
AA
ENDCHAR
STARTCHAR uni0001
ENCODING 1
SWIDTH 7000 0
DWIDTH 7 0
BBX 5 6 1 1
BITMAP
F8
88
88
88
88
F8
ENDCHAR
STARTCHAR uni0002
ENCODING 2
SWIDTH 7000 0
DWIDTH 7 0
BBX 5 6 1 1
BITMAP
F8
88
88
88
88
F8
ENDCHAR
STARTCHAR uni0003
ENCODING 3
SWIDTH 7000 0
DWIDTH 7 0
BBX 5 6 1 1
BITMAP
F8
88
88
88
88
F8
ENDCHAR
STARTCHAR uni0004
ENCODING 4
SWIDTH 7000 0
DWIDTH 7 0
BBX 5 6 1 1
BITMAP
F8
88
88
88
88
F8
ENDCHAR
STARTCHAR uni0005
ENCODING 5
SWIDTH 7000 0
DWIDTH 7 0
BBX 5 6 1 1
BITMAP
F8
88
88
88
88
F8
ENDCHAR
STARTCHAR uni0006
ENCODING 6
SWIDTH 7000 0
DWIDTH 7 0
BBX 5 6 1 1
BITMAP
F8
88
88
88
88
F8
ENDCHAR
STARTCHAR uni0007
ENCODING 7
SWIDTH 7000 0
DWIDTH 7 0
BBX 5 6 1 1
BITMAP
F8
88
88
88
88
F8
ENDCHAR
STARTCHAR uni0008
ENCODING 8
SWIDTH 7000 0
DWIDTH 7 0
BBX 5 6 1 1
BITMAP
F8
88
88
88
88
F8
ENDCHAR
STARTCHAR uni0009
ENCODING 9
SWIDTH 7000 0
DWIDTH 7 0
BBX 1 1 6 -3
BITMAP
00
ENDCHAR
STARTCHAR uni000A
ENCODING 10
SWIDTH 7000 0
DWIDTH 7 0
BBX 5 6 1 1
BITMAP
F8
88
88
88
88
F8
ENDCHAR
STARTCHAR uni000B
ENCODING 11
SWIDTH 7000 0
DWIDTH 7 0
BBX 5 6 1 1
BITMAP
F8
88
88
88
88
F8
ENDCHAR
STARTCHAR uni000C
ENCODING 12
SWIDTH 7000 0
DWIDTH 7 0
BBX 5 6 1 1
BITMAP
F8
88
88
88
88
F8
ENDCHAR
STARTCHAR uni000D
ENCODING 13
SWIDTH 7000 0
DWIDTH 7 0
BBX 5 6 1 1
BITMAP
F8
88
88
88
88
F8
ENDCHAR
STARTCHAR uni000E
ENCODING 14
SWIDTH 7000 0
DWIDTH 7 0
BBX 4 7 0 3
BITMAP
30
30
30
30
30
30
F0
ENDCHAR
STARTCHAR uni000F
ENCODING 15
SWIDTH 7000 0
DWIDTH 7 0
BBX 5 7 2 3
BITMAP
C0
C0
C0
C0
C0
C0
F8
ENDCHAR
STARTCHAR uni0010
ENCODING 16
SWIDTH 7000 0
DWIDTH 7 0
BBX 5 7 2 -3
BITMAP
F8
C0
C0
C0
C0
C0
C0
ENDCHAR
STARTCHAR uni0011
ENCODING 17
SWIDTH 7000 0
DWIDTH 7 0
BBX 4 7 0 -3
BITMAP
F0
30
30
30
30
30
30
ENDCHAR
STARTCHAR uni0012
ENCODING 18
SWIDTH 7000 0
DWIDTH 7 0
BBX 7 1 0 3
BITMAP
FE
ENDCHAR
STARTCHAR uni0013
ENCODING 19
SWIDTH 7000 0
DWIDTH 7 0
BBX 2 13 2 -3
BITMAP
C0
C0
C0
C0
C0
C0
C0
C0
C0
C0
C0
C0
C0
ENDCHAR
STARTCHAR uni0014
ENCODING 20
SWIDTH 7000 0
DWIDTH 7 0
BBX 4 13 0 -3
BITMAP
30
30
30
30
30
30
F0
30
30
30
30
30
30
ENDCHAR
STARTCHAR uni0015
ENCODING 21
SWIDTH 7000 0
DWIDTH 7 0
BBX 7 7 0 3
BITMAP
30
30
30
30
30
30
FE
ENDCHAR
STARTCHAR uni0016
ENCODING 22
SWIDTH 7000 0
DWIDTH 7 0
BBX 5 13 2 -3
BITMAP
C0
C0
C0
C0
C0
C0
F8
C0
C0
C0
C0
C0
C0
ENDCHAR
STARTCHAR uni0017
ENCODING 23
SWIDTH 7000 0
DWIDTH 7 0
BBX 7 7 0 -3
BITMAP
FE
30
30
30
30
30
30
ENDCHAR
STARTCHAR uni0018
ENCODING 24
SWIDTH 7000 0
DWIDTH 7 0
BBX 7 13 0 -3
BITMAP
30
30
30
30
30
30
FE
30
30
30
30
30
30
ENDCHAR
STARTCHAR uni0019
ENCODING 25
SWIDTH 7000 0
DWIDTH 7 0
BBX 7 13 0 -3
BITMAP
AA
54
AA
54
AA
54
AA
54
AA
54
AA
54
AA
ENDCHAR
STARTCHAR uni001A
ENCODING 26
SWIDTH 7000 0
DWIDTH 7 0
BBX 6 5 0 1
BITMAP
18
7C
30
F8
60
ENDCHAR
STARTCHAR uni001B
ENCODING 27
SWIDTH 7000 0
DWIDTH 7 0
BBX 6 7 0 0
BITMAP
1C
70
C0
70
18
00
F8
ENDCHAR
STARTCHAR uni001C
ENCODING 28
SWIDTH 7000 0
DWIDTH 7 0
BBX 7 6 0 0
BITMAP
FE
6C
6C
D8
D8
D8
ENDCHAR
STARTCHAR uni001D
ENCODING 29
SWIDTH 7000 0
DWIDTH 7 0
BBX 6 7 0 0
BITMAP
60
38
0C
38
E0
00
F8
ENDCHAR
STARTCHAR uni001E
ENCODING 30
SWIDTH 7000 0
DWIDTH 7 0
BBX 7 8 0 0
BITMAP
0E
18
30
F8
60
60
C0
F8
ENDCHAR
STARTCHAR uni001F
ENCODING 31
SWIDTH 7000 0
DWIDTH 7 0
BBX 4 1 1 3
BITMAP
F0
ENDCHAR
STARTCHAR space
ENCODING 32
SWIDTH 7000 0
DWIDTH 7 0
BBX 1 1 6 -3
BITMAP
00
ENDCHAR
STARTCHAR exclam
ENCODING 33
SWIDTH 7000 0
DWIDTH 7 0
BBX 4 8 1 0
BITMAP
30
30
30
60
60
00
C0
C0
ENDCHAR
STARTCHAR quotedbl
ENCODING 34
SWIDTH 7000 0
DWIDTH 7 0
BBX 5 3 1 6
BITMAP
D8
D8
D8
ENDCHAR
STARTCHAR numbersign
ENCODING 35
SWIDTH 7000 0
DWIDTH 7 0
BBX 7 8 0 0
BITMAP
34
34
7E
34
68
FC
68
68
ENDCHAR
STARTCHAR dollar
ENCODING 36
SWIDTH 7000 0
DWIDTH 7 0
BBX 7 10 0 -1
BITMAP
08
3C
6E
70
30
18
1C
EC
78
20
ENDCHAR
STARTCHAR percent
ENCODING 37
SWIDTH 7000 0
DWIDTH 7 0
BBX 6 9 0 -1
BITMAP
60
F0
6C
18
30
60
D8
3C
18
ENDCHAR
STARTCHAR ampersand
ENCODING 38
SWIDTH 7000 0
DWIDTH 7 0
BBX 6 8 0 0
BITMAP
18
34
34
38
7C
D8
D8
6C
ENDCHAR
STARTCHAR quotesingle
ENCODING 39
SWIDTH 7000 0
DWIDTH 7 0
BBX 2 3 2 6
BITMAP
C0
C0
C0
ENDCHAR
STARTCHAR parenleft
ENCODING 40
SWIDTH 7000 0
DWIDTH 7 0
BBX 5 11 1 -2
BITMAP
18
30
60
60
C0
C0
C0
C0
60
60
30
ENDCHAR
STARTCHAR parenright
ENCODING 41
SWIDTH 7000 0
DWIDTH 7 0
BBX 5 11 0 -2
BITMAP
60
30
30
18
18
18
18
30
30
60
C0
ENDCHAR
STARTCHAR asterisk
ENCODING 42
SWIDTH 7000 0
DWIDTH 7 0
BBX 6 5 0 1
BITMAP
6C
30
FC
30
D8
ENDCHAR
STARTCHAR plus
ENCODING 43
SWIDTH 7000 0
DWIDTH 7 0
BBX 5 5 1 1
BITMAP
30
30
F8
60
60
ENDCHAR
STARTCHAR comma
ENCODING 44
SWIDTH 7000 0
DWIDTH 7 0
BBX 4 4 1 -2
BITMAP
30
30
60
C0
ENDCHAR
STARTCHAR hyphen
ENCODING 45
SWIDTH 7000 0
DWIDTH 7 0
BBX 5 1 1 3
BITMAP
F8
ENDCHAR
STARTCHAR period
ENCODING 46
SWIDTH 7000 0
DWIDTH 7 0
BBX 2 2 2 0
BITMAP
C0
C0
ENDCHAR
STARTCHAR slash
ENCODING 47
SWIDTH 7000 0
DWIDTH 7 0
BBX 7 10 0 -1
BITMAP
06
0C
0C
18
18
30
30
60
60
C0
ENDCHAR
STARTCHAR zero
ENCODING 48
SWIDTH 7000 0
DWIDTH 7 0
BBX 7 8 0 0
BITMAP
3C
66
6E
D6
D6
EC
CC
70
ENDCHAR
STARTCHAR one
ENCODING 49
SWIDTH 7000 0
DWIDTH 7 0
BBX 6 8 0 0
BITMAP
1C
3C
6C
18
18
30
30
FC
ENDCHAR
STARTCHAR two
ENCODING 50
SWIDTH 7000 0
DWIDTH 7 0
BBX 7 8 0 0
BITMAP
1C
36
06
1C
38
60
C0
F8
ENDCHAR
STARTCHAR three
ENCODING 51
SWIDTH 7000 0
DWIDTH 7 0
BBX 7 8 0 0
BITMAP
1C
36
0C
18
0C
0C
D8
70
ENDCHAR
STARTCHAR four
ENCODING 52
SWIDTH 7000 0
DWIDTH 7 0
BBX 7 8 0 0
BITMAP
0E
1E
36
6C
CC
FE
18
18
ENDCHAR
STARTCHAR five
ENCODING 53
SWIDTH 7000 0
DWIDTH 7 0
BBX 7 8 0 0
BITMAP
3E
30
60
78
0C
0C
D8
70
ENDCHAR
STARTCHAR six
ENCODING 54
SWIDTH 7000 0
DWIDTH 7 0
BBX 6 8 0 0
BITMAP
1C
30
60
78
CC
CC
D8
70
ENDCHAR
STARTCHAR seven
ENCODING 55
SWIDTH 7000 0
DWIDTH 7 0
BBX 6 8 0 0
BITMAP
FC
0C
18
30
60
60
C0
C0
ENDCHAR
STARTCHAR eight
ENCODING 56
SWIDTH 7000 0
DWIDTH 7 0
BBX 7 8 0 0
BITMAP
1C
36
6C
38
6C
CC
D8
70
ENDCHAR
STARTCHAR nine
ENCODING 57
SWIDTH 7000 0
DWIDTH 7 0
BBX 6 8 1 0
BITMAP
38
6C
CC
CC
78
18
30
E0
ENDCHAR
STARTCHAR colon
ENCODING 58
SWIDTH 7000 0
DWIDTH 7 0
BBX 3 6 2 0
BITMAP
60
60
00
00
C0
C0
ENDCHAR
STARTCHAR semicolon
ENCODING 59
SWIDTH 7000 0
DWIDTH 7 0
BBX 5 8 0 -2
BITMAP
18
18
00
00
30
30
60
C0
ENDCHAR
STARTCHAR less
ENCODING 60
SWIDTH 7000 0
DWIDTH 7 0
BBX 5 7 1 0
BITMAP
18
30
60
C0
C0
60
60
ENDCHAR
STARTCHAR equal
ENCODING 61
SWIDTH 7000 0
DWIDTH 7 0
BBX 6 3 0 2
BITMAP
7C
00
F8
ENDCHAR
STARTCHAR greater
ENCODING 62
SWIDTH 7000 0
DWIDTH 7 0
BBX 5 7 1 0
BITMAP
30
30
18
18
30
60
C0
ENDCHAR
STARTCHAR question
ENCODING 63
SWIDTH 7000 0
DWIDTH 7 0
BBX 6 8 1 0
BITMAP
78
CC
0C
18
30
00
60
60
ENDCHAR
STARTCHAR at
ENCODING 64
SWIDTH 7000 0
DWIDTH 7 0
BBX 7 8 0 0
BITMAP
3C
66
66
6C
FC
DC
C0
7C
ENDCHAR
STARTCHAR A
ENCODING 65
SWIDTH 7000 0
DWIDTH 7 0
BBX 7 8 0 0
BITMAP
0E
1E
36
36
7C
6C
CC
CC
ENDCHAR
STARTCHAR B
ENCODING 66
SWIDTH 7000 0
DWIDTH 7 0
BBX 7 8 0 0
BITMAP
3C
36
6C
78
68
CC
CC
F8
ENDCHAR
STARTCHAR C
ENCODING 67
SWIDTH 7000 0
DWIDTH 7 0
BBX 7 8 0 0
BITMAP
1C
36
60
60
C0
C0
D8
70
ENDCHAR
STARTCHAR D
ENCODING 68
SWIDTH 7000 0
DWIDTH 7 0
BBX 7 8 0 0
BITMAP
3C
36
36
66
6C
CC
D8
F0
ENDCHAR
STARTCHAR E
ENCODING 69
SWIDTH 7000 0
DWIDTH 7 0
BBX 7 8 0 0
BITMAP
3E
30
60
78
60
C0
C0
F8
ENDCHAR
STARTCHAR F
ENCODING 70
SWIDTH 7000 0
DWIDTH 7 0
BBX 7 8 0 0
BITMAP
3E
30
60
78
60
C0
C0
C0
ENDCHAR
STARTCHAR G
ENCODING 71
SWIDTH 7000 0
DWIDTH 7 0
BBX 7 8 0 0
BITMAP
1C
36
60
60
DC
CC
D8
70
ENDCHAR
STARTCHAR H
ENCODING 72
SWIDTH 7000 0
DWIDTH 7 0
BBX 7 8 0 0
BITMAP
36
36
6C
7C
6C
D8
D8
D8
ENDCHAR
STARTCHAR I
ENCODING 73
SWIDTH 7000 0
DWIDTH 7 0
BBX 6 8 0 0
BITMAP
3C
18
30
30
30
60
60
F0
ENDCHAR
STARTCHAR J
ENCODING 74
SWIDTH 7000 0
DWIDTH 7 0
BBX 7 8 0 0
BITMAP
1E
06
06
0C
0C
CC
D8
70
ENDCHAR
STARTCHAR K
ENCODING 75
SWIDTH 7000 0
DWIDTH 7 0
BBX 7 8 0 0
BITMAP
32
36
6C
78
6C
CC
CC
CC
ENDCHAR
STARTCHAR L
ENCODING 76
SWIDTH 7000 0
DWIDTH 7 0
BBX 6 8 0 0
BITMAP
30
30
60
60
60
C0
C0
FC
ENDCHAR
STARTCHAR M
ENCODING 77
SWIDTH 7000 0
DWIDTH 7 0
BBX 7 8 0 0
BITMAP
22
36
7E
76
66
CC
CC
CC
ENDCHAR
STARTCHAR N
ENCODING 78
SWIDTH 7000 0
DWIDTH 7 0
BBX 7 8 0 0
BITMAP
66
66
76
76
DC
CC
CC
CC
ENDCHAR
STARTCHAR O
ENCODING 79
SWIDTH 7000 0
DWIDTH 7 0
BBX 7 8 0 0
BITMAP
1C
36
66
66
CC
CC
D8
70
ENDCHAR
STARTCHAR P
ENCODING 80
SWIDTH 7000 0
DWIDTH 7 0
BBX 7 8 0 0
BITMAP
3C
36
36
6C
78
60
C0
C0
ENDCHAR
STARTCHAR Q
ENCODING 81
SWIDTH 7000 0
DWIDTH 7 0
BBX 7 9 0 -1
BITMAP
1C
36
66
66
CC
CC
D8
7C
0C
ENDCHAR
STARTCHAR R
ENCODING 82
SWIDTH 7000 0
DWIDTH 7 0
BBX 7 8 0 0
BITMAP
3C
36
66
7C
78
CC
CC
CC
ENDCHAR
STARTCHAR S
ENCODING 83
SWIDTH 7000 0
DWIDTH 7 0
BBX 7 8 0 0
BITMAP
3C
66
60
30
18
18
D8
70
ENDCHAR
STARTCHAR T
ENCODING 84
SWIDTH 7000 0
DWIDTH 7 0
BBX 6 8 1 0
BITMAP
FC
30
30
60
60
C0
C0
C0
ENDCHAR
STARTCHAR U
ENCODING 85
SWIDTH 7000 0
DWIDTH 7 0
BBX 7 8 0 0
BITMAP
36
36
6C
6C
6C
D8
D8
70
ENDCHAR
STARTCHAR V
ENCODING 86
SWIDTH 7000 0
DWIDTH 7 0
BBX 6 8 1 0
BITMAP
CC
CC
D8
D8
F0
E0
C0
C0
ENDCHAR
STARTCHAR W
ENCODING 87
SWIDTH 7000 0
DWIDTH 7 0
BBX 7 8 0 0
BITMAP
36
36
66
6C
7C
FC
D8
88
ENDCHAR
STARTCHAR X
ENCODING 88
SWIDTH 7000 0
DWIDTH 7 0
BBX 7 8 0 0
BITMAP
66
66
3C
18
30
78
CC
CC
ENDCHAR
STARTCHAR Y
ENCODING 89
SWIDTH 7000 0
DWIDTH 7 0
BBX 6 8 1 0
BITMAP
CC
CC
D8
F0
60
60
C0
C0
ENDCHAR
STARTCHAR Z
ENCODING 90
SWIDTH 7000 0
DWIDTH 7 0
BBX 7 8 0 0
BITMAP
3E
0C
18
30
60
60
C0
F8
ENDCHAR
STARTCHAR bracketleft
ENCODING 91
SWIDTH 7000 0
DWIDTH 7 0
BBX 6 11 0 -2
BITMAP
3C
30
30
60
60
60
60
C0
C0
C0
F0
ENDCHAR
STARTCHAR backslash
ENCODING 92
SWIDTH 7000 0
DWIDTH 7 0
BBX 5 10 1 -1
BITMAP
C0
C0
60
60
60
30
30
30
18
18
ENDCHAR
STARTCHAR bracketright
ENCODING 93
SWIDTH 7000 0
DWIDTH 7 0
BBX 6 11 0 -2
BITMAP
3C
0C
0C
18
18
18
18
30
30
30
F0
ENDCHAR
STARTCHAR asciicircum
ENCODING 94
SWIDTH 7000 0
DWIDTH 7 0
BBX 6 6 0 3
BITMAP
38
38
6C
6C
CC
CC
ENDCHAR
STARTCHAR underscore
ENCODING 95
SWIDTH 7000 0
DWIDTH 7 0
BBX 7 1 0 -1
BITMAP
FE
ENDCHAR
STARTCHAR grave
ENCODING 96
SWIDTH 7000 0
DWIDTH 7 0
BBX 3 2 2 7
BITMAP
C0
60
ENDCHAR
STARTCHAR a
ENCODING 97
SWIDTH 7000 0
DWIDTH 7 0
BBX 6 6 0 0
BITMAP
38
0C
7C
CC
D8
78
ENDCHAR
STARTCHAR b
ENCODING 98
SWIDTH 7000 0
DWIDTH 7 0
BBX 6 9 0 0
BITMAP
30
30
30
78
6C
6C
D8
D8
F0
ENDCHAR
STARTCHAR c
ENCODING 99
SWIDTH 7000 0
DWIDTH 7 0
BBX 6 6 0 0
BITMAP
38
6C
60
C0
D8
70
ENDCHAR
STARTCHAR d
ENCODING 100
SWIDTH 7000 0
DWIDTH 7 0
BBX 7 9 0 0
BITMAP
06
06
06
3C
6C
6C
D8
D8
78
ENDCHAR
STARTCHAR e
ENCODING 101
SWIDTH 7000 0
DWIDTH 7 0
BBX 6 6 0 0
BITMAP
38
6C
7C
C0
D8
70
ENDCHAR
STARTCHAR f
ENCODING 102
SWIDTH 7000 0
DWIDTH 7 0
BBX 6 9 1 0
BITMAP
1C
30
30
F8
60
60
C0
C0
C0
ENDCHAR
STARTCHAR g
ENCODING 103
SWIDTH 7000 0
DWIDTH 7 0
BBX 6 9 0 -3
BITMAP
3C
6C
6C
D8
D8
78
30
30
E0
ENDCHAR
STARTCHAR h
ENCODING 104
SWIDTH 7000 0
DWIDTH 7 0
BBX 6 9 0 0
BITMAP
30
30
30
78
6C
6C
D8
D8
D8
ENDCHAR
STARTCHAR i
ENCODING 105
SWIDTH 7000 0
DWIDTH 7 0
BBX 5 9 1 0
BITMAP
18
18
00
70
30
30
60
60
F0
ENDCHAR
STARTCHAR j
ENCODING 106
SWIDTH 7000 0
DWIDTH 7 0
BBX 6 11 0 -2
BITMAP
0C
0C
00
38
18
18
18
30
30
30
E0
ENDCHAR
STARTCHAR k
ENCODING 107
SWIDTH 7000 0
DWIDTH 7 0
BBX 7 9 0 0
BITMAP
30
30
30
66
6C
78
F0
D8
CC
ENDCHAR
STARTCHAR l
ENCODING 108
SWIDTH 7000 0
DWIDTH 7 0
BBX 4 9 1 0
BITMAP
70
30
30
60
60
60
C0
C0
E0
ENDCHAR
STARTCHAR m
ENCODING 109
SWIDTH 7000 0
DWIDTH 7 0
BBX 7 6 0 0
BITMAP
6C
7E
7E
D4
CC
CC
ENDCHAR
STARTCHAR n
ENCODING 110
SWIDTH 7000 0
DWIDTH 7 0
BBX 6 6 0 0
BITMAP
78
6C
6C
D8
D8
D8
ENDCHAR
STARTCHAR o
ENCODING 111
SWIDTH 7000 0
DWIDTH 7 0
BBX 6 6 0 0
BITMAP
38
6C
6C
D8
D8
70
ENDCHAR
STARTCHAR p
ENCODING 112
SWIDTH 7000 0
DWIDTH 7 0
BBX 7 9 0 -3
BITMAP
3C
36
36
6C
6C
78
C0
C0
C0
ENDCHAR
STARTCHAR q
ENCODING 113
SWIDTH 7000 0
DWIDTH 7 0
BBX 6 9 0 -3
BITMAP
3C
6C
6C
D8
D8
78
30
30
30
ENDCHAR
STARTCHAR r
ENCODING 114
SWIDTH 7000 0
DWIDTH 7 0
BBX 7 6 0 0
BITMAP
6C
76
60
C0
C0
C0
ENDCHAR
STARTCHAR s
ENCODING 115
SWIDTH 7000 0
DWIDTH 7 0
BBX 6 6 0 0
BITMAP
38
6C
30
18
D8
70
ENDCHAR
STARTCHAR t
ENCODING 116
SWIDTH 7000 0
DWIDTH 7 0
BBX 5 8 1 0
BITMAP
30
30
F8
60
60
C0
C0
78
ENDCHAR
STARTCHAR u
ENCODING 117
SWIDTH 7000 0
DWIDTH 7 0
BBX 6 6 0 0
BITMAP
6C
6C
6C
D8
D8
78
ENDCHAR
STARTCHAR v
ENCODING 118
SWIDTH 7000 0
DWIDTH 7 0
BBX 5 6 1 0
BITMAP
D8
D8
70
70
60
40
ENDCHAR
STARTCHAR w
ENCODING 119
SWIDTH 7000 0
DWIDTH 7 0
BBX 7 6 0 0
BITMAP
66
66
D6
D4
7C
58
ENDCHAR
STARTCHAR x
ENCODING 120
SWIDTH 7000 0
DWIDTH 7 0
BBX 7 6 0 0
BITMAP
66
3C
18
30
78
CC
ENDCHAR
STARTCHAR y
ENCODING 121
SWIDTH 7000 0
DWIDTH 7 0
BBX 6 9 0 -3
BITMAP
6C
6C
6C
D8
D8
78
30
30
E0
ENDCHAR
STARTCHAR z
ENCODING 122
SWIDTH 7000 0
DWIDTH 7 0
BBX 6 6 0 0
BITMAP
7C
0C
38
60
C0
F8
ENDCHAR
STARTCHAR braceleft
ENCODING 123
SWIDTH 7000 0
DWIDTH 7 0
BBX 7 11 0 -2
BITMAP
0E
18
18
30
30
E0
30
60
60
60
38
ENDCHAR
STARTCHAR bar
ENCODING 124
SWIDTH 7000 0
DWIDTH 7 0
BBX 4 11 1 -2
BITMAP
30
30
30
60
60
60
60
60
C0
C0
C0
ENDCHAR
STARTCHAR braceright
ENCODING 125
SWIDTH 7000 0
DWIDTH 7 0
BBX 7 11 0 -2
BITMAP
38
0C
0C
18
18
0E
18
18
30
30
E0
ENDCHAR
STARTCHAR asciitilde
ENCODING 126
SWIDTH 7000 0
DWIDTH 7 0
BBX 6 3 0 2
BITMAP
64
FC
98
ENDCHAR
STARTCHAR uni007F
ENCODING 127
SWIDTH 7000 0
DWIDTH 7 0
BBX 1 1 6 -3
BITMAP
00
ENDCHAR
STARTCHAR uni0080
ENCODING 128
SWIDTH 7000 0
DWIDTH 7 0
BBX 7 7 0 0
BITMAP
1C
36
F8
60
F0
6C
38
ENDCHAR
STARTCHAR uni0081
ENCODING 129
SWIDTH 7000 0
DWIDTH 7 0
BBX 1 1 6 -3
BITMAP
00
ENDCHAR
STARTCHAR uni0082
ENCODING 130
SWIDTH 7000 0
DWIDTH 7 0
BBX 4 4 1 -2
BITMAP
30
30
60
C0
ENDCHAR
STARTCHAR uni0083
ENCODING 131
SWIDTH 7000 0
DWIDTH 7 0
BBX 7 11 0 -2
BITMAP
0E
18
18
7C
30
30
30
60
60
60
C0
ENDCHAR
STARTCHAR uni0084
ENCODING 132
SWIDTH 7000 0
DWIDTH 7 0
BBX 5 3 1 -1
BITMAP
D8
D8
D8
ENDCHAR
STARTCHAR uni0085
ENCODING 133
SWIDTH 7000 0
DWIDTH 7 0
BBX 5 1 1 0
BITMAP
A8
ENDCHAR
STARTCHAR uni0086
ENCODING 134
SWIDTH 7000 0
DWIDTH 7 0
BBX 5 9 1 0
BITMAP
30
30
F8
60
60
60
60
C0
C0
ENDCHAR
STARTCHAR uni0087
ENCODING 135
SWIDTH 7000 0
DWIDTH 7 0
BBX 6 9 0 0
BITMAP
18
18
7C
30
F8
30
30
60
60
ENDCHAR
STARTCHAR uni0088
ENCODING 136
SWIDTH 7000 0
DWIDTH 7 0
BBX 6 3 0 6
BITMAP
38
6C
CC
ENDCHAR
STARTCHAR uni0089
ENCODING 137
SWIDTH 7000 0
DWIDTH 7 0
BBX 5 8 1 0
BITMAP
90
90
20
20
40
40
A8
A8
ENDCHAR
STARTCHAR uni008A
ENCODING 138
SWIDTH 7000 0
DWIDTH 7 0
BBX 7 10 0 0
BITMAP
6C
38
3C
66
60
30
18
18
D8
70
ENDCHAR
STARTCHAR uni008B
ENCODING 139
SWIDTH 7000 0
DWIDTH 7 0
BBX 4 5 1 1
BITMAP
30
60
C0
C0
60
ENDCHAR
STARTCHAR uni008C
ENCODING 140
SWIDTH 7000 0
DWIDTH 7 0
BBX 7 8 0 0
BITMAP
36
6C
68
DC
D8
B0
B0
58
ENDCHAR
STARTCHAR uni008D
ENCODING 141
SWIDTH 7000 0
DWIDTH 7 0
BBX 1 1 6 -3
BITMAP
00
ENDCHAR
STARTCHAR uni008E
ENCODING 142
SWIDTH 7000 0
DWIDTH 7 0
BBX 7 10 0 0
BITMAP
36
1C
3E
0C
18
30
60
60
C0
F8
ENDCHAR
STARTCHAR uni008F
ENCODING 143
SWIDTH 7000 0
DWIDTH 7 0
BBX 1 1 6 -3
BITMAP
00
ENDCHAR
STARTCHAR uni0090
ENCODING 144
SWIDTH 7000 0
DWIDTH 7 0
BBX 1 1 6 -3
BITMAP
00
ENDCHAR
STARTCHAR uni0091
ENCODING 145
SWIDTH 7000 0
DWIDTH 7 0
BBX 3 3 2 6
BITMAP
C0
C0
60
ENDCHAR
STARTCHAR uni0092
ENCODING 146
SWIDTH 7000 0
DWIDTH 7 0
BBX 3 3 1 6
BITMAP
60
60
C0
ENDCHAR
STARTCHAR uni0093
ENCODING 147
SWIDTH 7000 0
DWIDTH 7 0
BBX 6 3 1 6
BITMAP
D8
D8
6C
ENDCHAR
STARTCHAR uni0094
ENCODING 148
SWIDTH 7000 0
DWIDTH 7 0
BBX 6 3 1 6
BITMAP
6C
6C
D8
ENDCHAR
STARTCHAR uni0095
ENCODING 149
SWIDTH 7000 0
DWIDTH 7 0
BBX 6 5 0 1
BITMAP
30
78
FC
78
30
ENDCHAR
STARTCHAR uni0096
ENCODING 150
SWIDTH 7000 0
DWIDTH 7 0
BBX 6 1 0 3
BITMAP
FC
ENDCHAR
STARTCHAR uni0097
ENCODING 151
SWIDTH 7000 0
DWIDTH 7 0
BBX 7 1 0 3
BITMAP
FE
ENDCHAR
STARTCHAR uni0098
ENCODING 152
SWIDTH 7000 0
DWIDTH 7 0
BBX 6 2 1 6
BITMAP
74
B8
ENDCHAR
STARTCHAR uni0099
ENCODING 153
SWIDTH 7000 0
DWIDTH 7 0
BBX 5 4 1 4
BITMAP
F8
58
58
58
ENDCHAR
STARTCHAR uni009A
ENCODING 154
SWIDTH 7000 0
DWIDTH 7 0
BBX 7 9 0 0
BITMAP
36
1C
00
38
6C
30
18
D8
70
ENDCHAR
STARTCHAR uni009B
ENCODING 155
SWIDTH 7000 0
DWIDTH 7 0
BBX 4 5 1 1
BITMAP
60
30
30
60
C0
ENDCHAR
STARTCHAR uni009C
ENCODING 156
SWIDTH 7000 0
DWIDTH 7 0
BBX 6 6 0 0
BITMAP
68
D4
BC
B0
EC
58
ENDCHAR
STARTCHAR uni009D
ENCODING 157
SWIDTH 7000 0
DWIDTH 7 0
BBX 1 1 6 -3
BITMAP
00
ENDCHAR
STARTCHAR uni009E
ENCODING 158
SWIDTH 7000 0
DWIDTH 7 0
BBX 6 9 0 0
BITMAP
6C
38
00
7C
18
30
60
C0
F8
ENDCHAR
STARTCHAR uni009F
ENCODING 159
SWIDTH 7000 0
DWIDTH 7 0
BBX 6 10 1 0
BITMAP
6C
00
CC
CC
D8
F0
60
60
C0
C0
ENDCHAR
STARTCHAR uni00A0
ENCODING 160
SWIDTH 7000 0
DWIDTH 7 0
BBX 1 1 6 -3
BITMAP
00
ENDCHAR
STARTCHAR exclamdown
ENCODING 161
SWIDTH 7000 0
DWIDTH 7 0
BBX 4 8 1 0
BITMAP
30
30
00
60
60
C0
C0
C0
ENDCHAR
STARTCHAR cent
ENCODING 162
SWIDTH 7000 0
DWIDTH 7 0
BBX 6 10 0 -2
BITMAP
10
10
38
6C
60
E0
D8
70
20
20
ENDCHAR
STARTCHAR sterling
ENCODING 163
SWIDTH 7000 0
DWIDTH 7 0
BBX 6 8 0 0
BITMAP
1C
30
30
F8
60
60
C0
FC
ENDCHAR
STARTCHAR currency
ENCODING 164
SWIDTH 7000 0
DWIDTH 7 0
BBX 6 6 0 0
BITMAP
CC
78
68
68
78
CC
ENDCHAR
STARTCHAR yen
ENCODING 165
SWIDTH 7000 0
DWIDTH 7 0
BBX 7 8 0 0
BITMAP
66
66
6C
78
30
FC
60
60
ENDCHAR
STARTCHAR brokenbar
ENCODING 166
SWIDTH 7000 0
DWIDTH 7 0
BBX 5 11 1 -2
BITMAP
18
18
30
30
30
00
60
60
60
C0
C0
ENDCHAR
STARTCHAR section
ENCODING 167
SWIDTH 7000 0
DWIDTH 7 0
BBX 7 9 0 0
BITMAP
3C
66
60
38
6C
38
18
D8
70
ENDCHAR
STARTCHAR dieresis
ENCODING 168
SWIDTH 7000 0
DWIDTH 7 0
BBX 5 1 1 8
BITMAP
D8
ENDCHAR
STARTCHAR copyright
ENCODING 169
SWIDTH 7000 0
DWIDTH 7 0
BBX 7 8 0 0
BITMAP
1C
36
6E
76
FC
DC
D8
70
ENDCHAR
STARTCHAR ordfeminine
ENCODING 170
SWIDTH 7000 0
DWIDTH 7 0
BBX 5 5 0 3
BITMAP
70
18
78
D8
78
ENDCHAR
STARTCHAR guillemotleft
ENCODING 171
SWIDTH 7000 0
DWIDTH 7 0
BBX 6 5 0 1
BITMAP
34
68
D0
D0
68
ENDCHAR
STARTCHAR logicalnot
ENCODING 172
SWIDTH 7000 0
DWIDTH 7 0
BBX 5 4 0 0
BITMAP
F8
18
30
30
ENDCHAR
STARTCHAR uni00AD
ENCODING 173
SWIDTH 7000 0
DWIDTH 7 0
BBX 1 1 6 -3
BITMAP
00
ENDCHAR
STARTCHAR registered
ENCODING 174
SWIDTH 7000 0
DWIDTH 7 0
BBX 7 8 0 0
BITMAP
1C
36
76
7C
FC
D8
D8
70
ENDCHAR
STARTCHAR macron
ENCODING 175
SWIDTH 7000 0
DWIDTH 7 0
BBX 7 1 0 9
BITMAP
FE
ENDCHAR
STARTCHAR degree
ENCODING 176
SWIDTH 7000 0
DWIDTH 7 0
BBX 5 4 0 5
BITMAP
70
D8
D8
70
ENDCHAR
STARTCHAR plusminus
ENCODING 177
SWIDTH 7000 0
DWIDTH 7 0
BBX 5 7 0 0
BITMAP
30
30
F8
60
60
00
F8
ENDCHAR
STARTCHAR uni00B2
ENCODING 178
SWIDTH 7000 0
DWIDTH 7 0
BBX 5 5 0 4
BITMAP
F0
18
30
60
F8
ENDCHAR
STARTCHAR uni00B3
ENCODING 179
SWIDTH 7000 0
DWIDTH 7 0
BBX 5 5 0 4
BITMAP
F0
18
70
18
F0
ENDCHAR
STARTCHAR acute
ENCODING 180
SWIDTH 7000 0
DWIDTH 7 0
BBX 3 2 2 7
BITMAP
60
C0
ENDCHAR
STARTCHAR uni00B5
ENCODING 181
SWIDTH 7000 0
DWIDTH 7 0
BBX 7 8 0 -2
BITMAP
36
36
36
6C
7C
68
60
C0
ENDCHAR
STARTCHAR paragraph
ENCODING 182
SWIDTH 7000 0
DWIDTH 7 0
BBX 5 9 1 -1
BITMAP
78
E8
E8
68
28
28
28
28
28
ENDCHAR
STARTCHAR periodcentered
ENCODING 183
SWIDTH 7000 0
DWIDTH 7 0
BBX 3 3 2 2
BITMAP
40
E0
40
ENDCHAR
STARTCHAR cedilla
ENCODING 184
SWIDTH 7000 0
DWIDTH 7 0
BBX 3 3 2 -2
BITMAP
E0
60
C0
ENDCHAR
STARTCHAR uni00B9
ENCODING 185
SWIDTH 7000 0
DWIDTH 7 0
BBX 4 5 0 4
BITMAP
60
E0
60
60
F0
ENDCHAR
STARTCHAR ordmasculine
ENCODING 186
SWIDTH 7000 0
DWIDTH 7 0
BBX 5 5 0 4
BITMAP
70
D8
D8
D8
70
ENDCHAR
STARTCHAR guillemotright
ENCODING 187
SWIDTH 7000 0
DWIDTH 7 0
BBX 6 5 0 1
BITMAP
68
34
34
68
D0
ENDCHAR
STARTCHAR onequarter
ENCODING 188
SWIDTH 7000 0
DWIDTH 7 0
BBX 5 9 1 0
BITMAP
88
90
90
A0
20
48
58
B8
88
ENDCHAR
STARTCHAR onehalf
ENCODING 189
SWIDTH 7000 0
DWIDTH 7 0
BBX 5 9 1 0
BITMAP
88
90
90
A0
20
50
48
90
98
ENDCHAR
STARTCHAR threequarters
ENCODING 190
SWIDTH 7000 0
DWIDTH 7 0
BBX 5 9 1 0
BITMAP
C8
50
90
60
E0
48
58
B8
88
ENDCHAR
STARTCHAR questiondown
ENCODING 191
SWIDTH 7000 0
DWIDTH 7 0
BBX 6 8 0 0
BITMAP
18
18
00
30
60
C0
CC
78
ENDCHAR
STARTCHAR Agrave
ENCODING 192
SWIDTH 7000 0
DWIDTH 7 0
BBX 7 10 0 0
BITMAP
18
0C
00
0E
1E
36
7C
6C
CC
CC
ENDCHAR
STARTCHAR Aacute
ENCODING 193
SWIDTH 7000 0
DWIDTH 7 0
BBX 7 10 0 0
BITMAP
06
0C
00
0E
1E
36
7C
6C
CC
CC
ENDCHAR
STARTCHAR Acircumflex
ENCODING 194
SWIDTH 7000 0
DWIDTH 7 0
BBX 7 10 0 0
BITMAP
1C
36
00
0E
1E
36
7C
6C
CC
CC
ENDCHAR
STARTCHAR Atilde
ENCODING 195
SWIDTH 7000 0
DWIDTH 7 0
BBX 7 10 0 0
BITMAP
1A
2C
00
0E
1E
36
7C
6C
CC
CC
ENDCHAR
STARTCHAR Adieresis
ENCODING 196
SWIDTH 7000 0
DWIDTH 7 0
BBX 7 9 0 0
BITMAP
36
00
0E
1E
36
7C
6C
CC
CC
ENDCHAR
STARTCHAR Aring
ENCODING 197
SWIDTH 7000 0
DWIDTH 7 0
BBX 7 10 0 0
BITMAP
1C
36
1C
1E
36
36
7C
6C
CC
CC
ENDCHAR
STARTCHAR AE
ENCODING 198
SWIDTH 7000 0
DWIDTH 7 0
BBX 7 8 0 0
BITMAP
1E
3C
28
6C
78
D8
D8
DC
ENDCHAR
STARTCHAR Ccedilla
ENCODING 199
SWIDTH 7000 0
DWIDTH 7 0
BBX 7 11 0 -3
BITMAP
1C
36
60
60
C0
C0
D8
70
60
60
C0
ENDCHAR
STARTCHAR Egrave
ENCODING 200
SWIDTH 7000 0
DWIDTH 7 0
BBX 7 10 0 0
BITMAP
18
0C
00
3E
30
60
78
60
C0
F8
ENDCHAR
STARTCHAR Eacute
ENCODING 201
SWIDTH 7000 0
DWIDTH 7 0
BBX 7 10 0 0
BITMAP
06
0C
00
3E
30
60
78
60
C0
F8
ENDCHAR
STARTCHAR Ecircumflex
ENCODING 202
SWIDTH 7000 0
DWIDTH 7 0
BBX 7 10 0 0
BITMAP
1C
36
00
3E
30
60
78
60
C0
F8
ENDCHAR
STARTCHAR Edieresis
ENCODING 203
SWIDTH 7000 0
DWIDTH 7 0
BBX 7 9 0 0
BITMAP
36
00
3E
30
60
78
60
C0
F8
ENDCHAR
STARTCHAR Igrave
ENCODING 204
SWIDTH 7000 0
DWIDTH 7 0
BBX 6 10 0 0
BITMAP
18
0C
00
3C
18
30
30
60
60
F0
ENDCHAR
STARTCHAR Iacute
ENCODING 205
SWIDTH 7000 0
DWIDTH 7 0
BBX 7 10 0 0
BITMAP
06
0C
00
3C
18
30
30
60
60
F0
ENDCHAR
STARTCHAR Icircumflex
ENCODING 206
SWIDTH 7000 0
DWIDTH 7 0
BBX 7 10 0 0
BITMAP
1C
36
00
3C
18
30
30
60
60
F0
ENDCHAR
STARTCHAR Idieresis
ENCODING 207
SWIDTH 7000 0
DWIDTH 7 0
BBX 7 9 0 0
BITMAP
36
00
3C
18
30
30
60
60
F0
ENDCHAR
STARTCHAR Eth
ENCODING 208
SWIDTH 7000 0
DWIDTH 7 0
BBX 6 7 0 0
BITMAP
38
34
34
FC
68
68
70
ENDCHAR
STARTCHAR Ntilde
ENCODING 209
SWIDTH 7000 0
DWIDTH 7 0
BBX 7 10 0 0
BITMAP
1A
2C
00
66
66
76
76
DC
CC
CC
ENDCHAR
STARTCHAR Ograve
ENCODING 210
SWIDTH 7000 0
DWIDTH 7 0
BBX 7 10 0 0
BITMAP
18
0C
00
1C
36
66
6C
CC
D8
70
ENDCHAR
STARTCHAR Oacute
ENCODING 211
SWIDTH 7000 0
DWIDTH 7 0
BBX 7 10 0 0
BITMAP
06
0C
00
1C
36
66
6C
CC
D8
70
ENDCHAR
STARTCHAR Ocircumflex
ENCODING 212
SWIDTH 7000 0
DWIDTH 7 0
BBX 7 10 0 0
BITMAP
1C
36
00
1C
36
66
6C
CC
D8
70
ENDCHAR
STARTCHAR Otilde
ENCODING 213
SWIDTH 7000 0
DWIDTH 7 0
BBX 7 10 0 0
BITMAP
1A
2C
00
1C
36
66
6C
CC
D8
70
ENDCHAR
STARTCHAR Odieresis
ENCODING 214
SWIDTH 7000 0
DWIDTH 7 0
BBX 7 9 0 0
BITMAP
36
00
1C
36
66
6C
CC
D8
70
ENDCHAR
STARTCHAR multiply
ENCODING 215
SWIDTH 7000 0
DWIDTH 7 0
BBX 6 5 0 1
BITMAP
6C
78
30
78
D8
ENDCHAR
STARTCHAR Oslash
ENCODING 216
SWIDTH 7000 0
DWIDTH 7 0
BBX 6 10 0 -1
BITMAP
04
1C
38
6C
6C
D8
D8
70
E0
80
ENDCHAR
STARTCHAR Ugrave
ENCODING 217
SWIDTH 7000 0
DWIDTH 7 0
BBX 7 10 0 0
BITMAP
18
0C
00
36
36
6C
6C
D8
D8
70
ENDCHAR
STARTCHAR Uacute
ENCODING 218
SWIDTH 7000 0
DWIDTH 7 0
BBX 7 10 0 0
BITMAP
06
0C
00
36
36
6C
6C
D8
D8
70
ENDCHAR
STARTCHAR Ucircumflex
ENCODING 219
SWIDTH 7000 0
DWIDTH 7 0
BBX 7 10 0 0
BITMAP
1C
36
00
36
36
6C
6C
D8
D8
70
ENDCHAR
STARTCHAR Udieresis
ENCODING 220
SWIDTH 7000 0
DWIDTH 7 0
BBX 7 9 0 0
BITMAP
36
00
36
36
6C
6C
D8
D8
70
ENDCHAR
STARTCHAR Yacute
ENCODING 221
SWIDTH 7000 0
DWIDTH 7 0
BBX 6 10 1 0
BITMAP
18
30
00
CC
CC
D8
F0
60
C0
C0
ENDCHAR
STARTCHAR Thorn
ENCODING 222
SWIDTH 7000 0
DWIDTH 7 0
BBX 6 8 0 0
BITMAP
30
30
78
6C
6C
F8
C0
C0
ENDCHAR
STARTCHAR germandbls
ENCODING 223
SWIDTH 7000 0
DWIDTH 7 0
BBX 7 10 0 -1
BITMAP
0E
1A
16
3C
34
34
6C
68
78
C0
ENDCHAR
STARTCHAR agrave
ENCODING 224
SWIDTH 7000 0
DWIDTH 7 0
BBX 6 9 0 0
BITMAP
30
18
00
38
0C
7C
CC
D8
78
ENDCHAR
STARTCHAR aacute
ENCODING 225
SWIDTH 7000 0
DWIDTH 7 0
BBX 6 9 0 0
BITMAP
0C
18
00
38
0C
7C
CC
D8
78
ENDCHAR
STARTCHAR acircumflex
ENCODING 226
SWIDTH 7000 0
DWIDTH 7 0
BBX 7 9 0 0
BITMAP
1C
36
00
38
0C
7C
CC
D8
78
ENDCHAR
STARTCHAR atilde
ENCODING 227
SWIDTH 7000 0
DWIDTH 7 0
BBX 7 9 0 0
BITMAP
1A
2C
00
38
0C
7C
CC
D8
78
ENDCHAR
STARTCHAR adieresis
ENCODING 228
SWIDTH 7000 0
DWIDTH 7 0
BBX 7 9 0 0
BITMAP
36
00
00
38
0C
7C
CC
D8
78
ENDCHAR
STARTCHAR aring
ENCODING 229
SWIDTH 7000 0
DWIDTH 7 0
BBX 7 10 0 0
BITMAP
1C
36
1C
00
38
0C
7C
CC
D8
78
ENDCHAR
STARTCHAR ae
ENCODING 230
SWIDTH 7000 0
DWIDTH 7 0
BBX 7 6 0 0
BITMAP
6C
16
7C
B0
B4
68
ENDCHAR
STARTCHAR ccedilla
ENCODING 231
SWIDTH 7000 0
DWIDTH 7 0
BBX 6 9 0 -3
BITMAP
38
6C
60
C0
D8
70
60
60
C0
ENDCHAR
STARTCHAR egrave
ENCODING 232
SWIDTH 7000 0
DWIDTH 7 0
BBX 6 9 0 0
BITMAP
30
18
00
38
6C
7C
C0
D8
70
ENDCHAR
STARTCHAR eacute
ENCODING 233
SWIDTH 7000 0
DWIDTH 7 0
BBX 6 9 0 0
BITMAP
0C
18
00
38
6C
7C
C0
D8
70
ENDCHAR
STARTCHAR ecircumflex
ENCODING 234
SWIDTH 7000 0
DWIDTH 7 0
BBX 7 9 0 0
BITMAP
1C
36
00
38
6C
7C
C0
D8
70
ENDCHAR
STARTCHAR edieresis
ENCODING 235
SWIDTH 7000 0
DWIDTH 7 0
BBX 7 9 0 0
BITMAP
36
00
00
38
6C
7C
C0
D8
70
ENDCHAR
STARTCHAR igrave
ENCODING 236
SWIDTH 7000 0
DWIDTH 7 0
BBX 4 9 1 0
BITMAP
60
30
00
70
30
30
60
60
F0
ENDCHAR
STARTCHAR iacute
ENCODING 237
SWIDTH 7000 0
DWIDTH 7 0
BBX 5 9 1 0
BITMAP
18
30
00
70
30
30
60
60
F0
ENDCHAR
STARTCHAR icircumflex
ENCODING 238
SWIDTH 7000 0
DWIDTH 7 0
BBX 6 9 1 0
BITMAP
38
6C
00
70
30
30
60
60
F0
ENDCHAR
STARTCHAR idieresis
ENCODING 239
SWIDTH 7000 0
DWIDTH 7 0
BBX 6 9 1 0
BITMAP
6C
00
00
70
30
30
60
60
F0
ENDCHAR
STARTCHAR eth
ENCODING 240
SWIDTH 7000 0
DWIDTH 7 0
BBX 7 9 0 0
BITMAP
3A
0C
16
06
3C
6C
D8
D8
70
ENDCHAR
STARTCHAR ntilde
ENCODING 241
SWIDTH 7000 0
DWIDTH 7 0
BBX 7 9 0 0
BITMAP
1A
2C
00
78
6C
6C
D8
D8
D8
ENDCHAR
STARTCHAR ograve
ENCODING 242
SWIDTH 7000 0
DWIDTH 7 0
BBX 6 9 0 0
BITMAP
30
18
00
38
6C
6C
D8
D8
70
ENDCHAR
STARTCHAR oacute
ENCODING 243
SWIDTH 7000 0
DWIDTH 7 0
BBX 6 9 0 0
BITMAP
0C
18
00
38
6C
6C
D8
D8
70
ENDCHAR
STARTCHAR ocircumflex
ENCODING 244
SWIDTH 7000 0
DWIDTH 7 0
BBX 7 9 0 0
BITMAP
1C
36
00
38
6C
6C
D8
D8
70
ENDCHAR
STARTCHAR otilde
ENCODING 245
SWIDTH 7000 0
DWIDTH 7 0
BBX 7 9 0 0
BITMAP
1A
2C
00
38
6C
6C
D8
D8
70
ENDCHAR
STARTCHAR odieresis
ENCODING 246
SWIDTH 7000 0
DWIDTH 7 0
BBX 7 9 0 0
BITMAP
36
00
00
38
6C
6C
D8
D8
70
ENDCHAR
STARTCHAR divide
ENCODING 247
SWIDTH 7000 0
DWIDTH 7 0
BBX 6 5 0 1
BITMAP
30
00
FC
00
60
ENDCHAR
STARTCHAR oslash
ENCODING 248
SWIDTH 7000 0
DWIDTH 7 0
BBX 6 8 0 -1
BITMAP
0C
38
6C
6C
D8
D8
70
C0
ENDCHAR
STARTCHAR ugrave
ENCODING 249
SWIDTH 7000 0
DWIDTH 7 0
BBX 6 9 0 0
BITMAP
30
18
00
6C
6C
6C
D8
D8
78
ENDCHAR
STARTCHAR uacute
ENCODING 250
SWIDTH 7000 0
DWIDTH 7 0
BBX 6 9 0 0
BITMAP
0C
18
00
6C
6C
6C
D8
D8
78
ENDCHAR
STARTCHAR ucircumflex
ENCODING 251
SWIDTH 7000 0
DWIDTH 7 0
BBX 7 9 0 0
BITMAP
1C
36
00
6C
6C
6C
D8
D8
78
ENDCHAR
STARTCHAR udieresis
ENCODING 252
SWIDTH 7000 0
DWIDTH 7 0
BBX 7 9 0 0
BITMAP
36
00
00
6C
6C
6C
D8
D8
78
ENDCHAR
STARTCHAR yacute
ENCODING 253
SWIDTH 7000 0
DWIDTH 7 0
BBX 6 12 0 -3
BITMAP
0C
18
00
6C
6C
6C
D8
D8
78
30
30
E0
ENDCHAR
STARTCHAR thorn
ENCODING 254
SWIDTH 7000 0
DWIDTH 7 0
BBX 7 10 0 -2
BITMAP
30
30
3C
66
66
6C
CC
F8
C0
C0
ENDCHAR
STARTCHAR ydieresis
ENCODING 255
SWIDTH 7000 0
DWIDTH 7 0
BBX 7 12 0 -3
BITMAP
66
00
00
6C
6C
6C
D8
D8
78
30
30
E0
ENDCHAR
STARTCHAR uni2B60
ENCODING 11104
SWIDTH 392 0
DWIDTH 6 0
BBX 6 13 0 -3
BITMAP
C0
C0
C8
DC
C8
C8
C8
C8
F8
C0
C0
C0
C0
ENDCHAR
STARTCHAR uni2B61
ENCODING 11105
SWIDTH 392 0
DWIDTH 6 0
BBX 6 9 0 -1
BITMAP
80
80
80
E0
00
1C
14
14
14
ENDCHAR
STARTCHAR uni2B62
ENCODING 11106
SWIDTH 392 0
DWIDTH 6 0
BBX 6 9 2 -1
BITMAP
FC
80
BC
84
BC
A0
A0
A0
E0
ENDCHAR
STARTCHAR uni2B63
ENCODING 11107
SWIDTH 392 0
DWIDTH 6 0
BBX 6 9 0 -1
BITMAP
FC
04
DC
50
50
50
50
50
70
ENDCHAR
STARTCHAR uni2B64
ENCODING 11108
SWIDTH 392 0
DWIDTH 6 0
BBX 6 9 0 -1
BITMAP
30
48
48
48
FC
CC
CC
FC
78
ENDCHAR
STARTCHAR uni2B80
ENCODING 11136
SWIDTH 392 0
DWIDTH 6 0
BBX 7 13 0 -3
BITMAP
80
C0
E0
F0
F8
FC
FE
FC
F8
F0
E0
C0
80
ENDCHAR
STARTCHAR uni2B81
ENCODING 11137
SWIDTH 392 0
DWIDTH 6 0
BBX 7 13 0 -3
BITMAP
80
40
20
10
08
04
02
04
08
10
20
40
80
ENDCHAR
STARTCHAR uni2B82
ENCODING 11138
SWIDTH 392 0
DWIDTH 6 0
BBX 7 13 0 -3
BITMAP
02
06
0E
1E
3E
7E
FE
7E
3E
1E
0E
06
02
ENDCHAR
STARTCHAR uni2B83
ENCODING 11139
SWIDTH 392 0
DWIDTH 6 0
BBX 7 13 0 -3
BITMAP
02
04
08
10
20
40
80
40
20
10
08
04
02
ENDCHAR
ENDFONT
